<?xml version="1.0" encoding="utf-8"?>
<!-- Generator: Adobe Illustrator 25.2.1, SVG Export Plug-In . SVG Version: 6.00 Build 0)  -->
<svg version="1.1" id="Capa_1" xmlns="http://www.w3.org/2000/svg" xmlns:xlink="http://www.w3.org/1999/xlink" x="0px" y="0px"
	 viewBox="0 0 256 256" style="enable-background:new 0 0 256 256;" xml:space="preserve">
<style type="text/css">
	.st0{fill:#606060;}
	.st1{fill:#F79A10;}
	.st2{fill:#FFFFFF;}
</style>
<circle class="st0" cx="94.2" cy="143.4" r="83.7"/>
<path class="st1" d="M223.5,30.4c-5.6-2.3-10.7-2.6-17-2.5l-106.1,0.6c-21.7-1.1-43.3,4.1-62.1,15l0,0c-5.2,2.8-7.1,9.3-4.3,14.6
	c2.8,5.2,9.3,7.1,14.6,4.3c1-0.5,1.9-1.2,2.7-2.1c44.6-24,100.1-7.3,124.1,37.2c19.7,36.6,12.3,82-18.1,110.4l0.1,0.1
	c-5.1,3-6.9,9.5-3.9,14.7c3,5.1,9.5,6.9,14.7,3.9c1.5-0.9,2.8-2.1,3.7-3.6c11.7-11,20.9-24.3,27-39.2c0.4-1,43.9-107,44-107.2
	C250.3,58.5,241.6,37.9,223.5,30.4z"/>
<path class="st2" d="M81.3,155.7c0,6.7,4.9,10,14.7,10c3.8,0,6.7-0.7,8.7-2.2c2-1.5,2.9-3,2.8-4.7c0-2.6-2.5-4.5-7.6-5.8l-15.5-3.8
	c-4.9-1.1-9.4-3.2-13.4-6.1c-3.8-2.8-5.8-7.1-5.8-12.9c0-4,1-8,3-11.5c1.9-3.3,5-6.1,9.4-8.2c4.9-2.2,10.2-3.2,15.5-3.1
	c8.3,0,14.6,1.2,19.1,3.6c4.4,2.4,7.4,5.3,8.8,8.8c0.8,1.7,1.4,3.4,1.9,5.1c0.4,1.6,0.6,3.3,0.6,5h-17.8c-0.4-3-1.4-5.2-3.1-6.5
	s-4.7-2.2-9-2.2c-7.2,0-10.9,2.1-10.9,6.4c0,2.3,2.4,4.1,7.3,5.2l15.7,3.8c5,1.1,9.8,3.2,14,6.1c3.9,2.8,5.9,7.1,5.9,12.8
	c0.1,4.5-1.1,8.8-3.6,12.5c-2.6,3.6-6.1,6.4-10.2,8.1c-5.1,2.1-10.5,3.1-16,3c-2.2,0-4.4-0.1-6.5-0.4c-1.9-0.2-4-0.6-6.3-1
	c-3.7-0.8-7.3-2.3-10.5-4.4c-3-1.9-5.4-4.5-7.2-7.6c-1.7-3.1-2.6-6.6-2.6-10.2H81.3z"/>
</svg>
