<?xml version="1.0" encoding="utf-8"?>
<!-- Generator: Adobe Illustrator 25.2.1, SVG Export Plug-In . SVG Version: 6.00 Build 0)  -->
<svg version="1.1" id="Capa_1" xmlns="http://www.w3.org/2000/svg" xmlns:xlink="http://www.w3.org/1999/xlink" x="0px" y="0px"
	 viewBox="0 0 484.9 200.1" style="enable-background:new 0 0 484.9 200.1;" xml:space="preserve">
<style type="text/css">
	.st0{fill:#F79A10;}
	.st1{enable-background:new    ;}
</style>
<path class="st0" d="M462.9,2.5c-5.6-2.3-10.7-2.6-17-2.5L339.9,0.6c-21.7-1.1-43.3,4.1-62.1,15l0,0c-5.2,2.8-7.1,9.3-4.3,14.6
	s9.3,7.1,14.6,4.3c1-0.5,1.9-1.2,2.7-2.1c44.6-24,100.1-7.3,124.1,37.2c19.7,36.6,12.3,82-18.1,110.4l0.1,0.1
	c-5.1,3-6.9,9.5-3.9,14.7c3,5.1,9.5,6.9,14.7,3.9c1.5-0.9,2.8-2.1,3.7-3.6c11.7-11,20.9-24.3,27-39.2c0.4-1,43.9-107,44-107.2
	C489.6,30.6,481,9.9,462.9,2.5z"/>
<g class="st1">
	<path d="M50.1,127.9c0,6.7,4.9,10,14.7,10c3.8,0,6.7-0.7,8.7-2.2c1.9-1.4,2.8-2.9,2.8-4.7c0-2.6-2.5-4.5-7.6-5.8l-15.5-3.7
		c-5.2-1.3-9.7-3.3-13.4-6.1c-3.8-2.8-5.8-7.1-5.8-12.9c0-4.2,1-8,2.9-11.5c1.9-3.3,5-6.1,9.3-8.2c4.3-2,9.4-3.1,15.5-3.1
		c8.3,0,14.6,1.2,19.1,3.6c4.5,2.4,7.5,5.3,8.8,8.8c0.9,1.9,1.5,3.6,1.9,5.1c0.4,1.9,0.6,3.5,0.6,5H74.5c-0.3-3-1.4-5.2-3.1-6.5
		c-1.7-1.5-4.7-2.2-9-2.2c-7.3,0-10.9,2.1-10.9,6.4c0,2.3,2.4,4.1,7.3,5.2l15.6,3.8c5.3,1.3,9.9,3.3,14,6.1
		c3.9,2.8,5.9,7.1,5.9,12.8c0,5-1.2,9.1-3.6,12.5c-2.5,3.5-5.9,6.2-10.2,8.1c-4.6,2-9.9,2.9-16,2.9c-2.1,0-4.3-0.1-6.5-0.4
		c-1.9-0.3-4-0.6-6.3-1c-4-0.9-7.5-2.4-10.5-4.4c-3.1-2-5.5-4.6-7.2-7.6c-1.7-3-2.6-6.4-2.6-10.2H50.1z"/>
	<path d="M107.3,81.4h17v12l0.5-0.3c1.5-2.8,2.9-5.1,4.2-6.9c1.3-1.7,3.1-3.2,5.4-4.6c2.1-1.4,5.1-2,9-2l1.8,0.1l1.7,0.1v18.3
		l-5-0.3c-11,0-16.5,5.4-16.5,16.3v35.5h-18V81.4z"/>
	<path d="M160.6,91c4.8-7.6,12.9-11.4,24.3-11.4c5.5,0,10.6,0.9,15.2,2.8c4.5,1.9,8.2,4.9,11.1,9c3.2,4.4,4.9,9.3,4.9,14.5h-18.2
		c-0.4-3.1-1.6-5.7-3.5-7.8c-1.9-2.1-4.7-3.2-8.3-3.2c-4.5,0-8.1,1.8-10.6,5.2c-2.6,3.4-3.8,8.2-3.8,14.3c0,5.2,0.4,9.3,1.3,12.2
		c0.8,3.2,2.2,5.7,4.4,7.3c2,1.8,4.7,2.7,8.1,2.7c3.1,0,5.8-1,8.2-3.1c2.4-2,3.8-4.8,4.1-8.6h18.2c-0.6,5-2.1,9.5-4.5,13.4
		c-2.4,3.8-5.8,7-10.2,9.3c-4.5,2.5-9.9,3.7-16,3.7c-9,0-16.6-2.6-22.5-7.8c-3.1-2.6-5.4-6.1-6.9-10.5c-1.5-4.3-2.3-9.5-2.3-15.7
		C153.4,107.4,155.8,98.6,160.6,91z"/>
	<path d="M294.2,149.6h-17.4l-0.3-8.4c-2.4,3.8-5.2,6.4-8.4,7.8c-1.7,0.8-3.6,1.4-5.8,1.8c-2,0.4-3.9,0.6-5.8,0.6
		c-5.1,0-9.9-1.4-14.3-4.1c-4.3-2.6-7.7-6.8-10.4-12.4c-2.6-5.5-3.8-12.2-3.8-20c0-7,1.1-13.1,3.2-18.2c2-5,5.3-9.2,9.7-12.5
		c4.2-3.1,9.2-4.6,15.1-4.6c4.4,0,8.1,0.8,11.3,2.4c3.1,1.6,6.1,4.4,9,8.3V57.6h17.9V149.6z M246.5,116.1c0,5.1,1.2,9.8,3.5,14.1
		c2.5,4.3,6.3,6.4,11.4,6.4c5,0,8.9-1.9,11.6-5.6c2.7-3.8,4.1-8.4,4.1-13.8c0-14.7-5.1-22-15.2-22c-5.5,0-9.4,2-11.8,5.9
		C247.6,104.9,246.5,109.9,246.5,116.1z"/>
	<path d="M320.7,127.9c0,6.7,4.9,10,14.7,10c3.8,0,6.7-0.7,8.7-2.2c1.9-1.4,2.8-2.9,2.8-4.7c0-2.6-2.5-4.5-7.6-5.8l-15.5-3.7
		c-5.2-1.3-9.7-3.3-13.4-6.1c-3.8-2.8-5.8-7.1-5.8-12.9c0-4.2,1-8,2.9-11.5c1.9-3.3,5-6.1,9.3-8.2c4.3-2,9.4-3.1,15.5-3.1
		c8.3,0,14.6,1.2,19.1,3.6c4.5,2.4,7.5,5.3,8.8,8.8c0.9,1.9,1.5,3.6,1.9,5.1c0.4,1.9,0.6,3.5,0.6,5h-17.8c-0.3-3-1.4-5.2-3.1-6.5
		c-1.7-1.5-4.7-2.2-9-2.2c-7.3,0-10.9,2.1-10.9,6.4c0,2.3,2.4,4.1,7.3,5.2l15.6,3.8c5.3,1.3,9.9,3.3,14,6.1
		c3.9,2.8,5.9,7.1,5.9,12.8c0,5-1.2,9.1-3.6,12.5c-2.5,3.5-5.9,6.2-10.2,8.1c-4.6,2-9.9,2.9-16,2.9c-2.1,0-4.3-0.1-6.5-0.4
		c-1.9-0.3-4-0.6-6.3-1c-4-0.9-7.5-2.4-10.5-4.4c-3.1-2-5.5-4.6-7.2-7.6c-1.7-3-2.6-6.4-2.6-10.2H320.7z"/>
</g>
</svg>
